<?xml version="1.0" encoding="UTF-8"?>
<!-- Svg Vector Icons : http://www.onlinewebfonts.com/icon -->
<!DOCTYPE svg PUBLIC "-//W3C//DTD SVG 1.1//EN" "http://www.w3.org/Graphics/SVG/1.1/DTD/svg11.dtd">
<svg version="1.1" xmlns="http://www.w3.org/2000/svg" xmlns:xlink="http://www.w3.org/1999/xlink" x="0px" y="0px" viewBox="0 0 1000 1000" enable-background="new 0 0 1000 1000" xml:space="preserve">
<metadata> Svg Vector Icons : http://www.onlinewebfonts.com/icon </metadata>
<g><path d="M220,10H80c-38.7,0-70,31.3-70,70v140c0,38.7,31.3,70,70,70h140c38.7,0,70-31.3,70-70V80C290,41.3,258.7,10,220,10z M570,10H430c-38.7,0-70,31.3-70,70v140c0,38.7,31.3,70,70,70h140c38.7,0,70-31.3,70-70V80C640,41.3,608.7,10,570,10z M920,10H780c-38.7,0-70,31.3-70,70v140c0,38.7,31.3,70,70,70h140c38.7,0,70-31.3,70-70V80C990,41.3,958.7,10,920,10z M220,360H80c-38.7,0-70,31.3-70,70v140c0,38.7,31.3,70,70,70h140c38.7,0,70-31.3,70-70V430C290,391.3,258.7,360,220,360z M570,360H430c-38.7,0-70,31.3-70,70v140c0,38.7,31.3,70,70,70h140c38.7,0,70-31.3,70-70V430C640,391.3,608.7,360,570,360z M920,360H780c-38.7,0-70,31.3-70,70v140c0,38.7,31.3,70,70,70h140c38.7,0,70-31.3,70-70V430C990,391.3,958.7,360,920,360z M220,710H80c-38.7,0-70,31.3-70,70v140c0,38.7,31.3,70,70,70h140c38.7,0,70-31.3,70-70V780C290,741.3,258.7,710,220,710z M570,710H430c-38.7,0-70,31.3-70,70v140c0,38.7,31.3,70,70,70h140c38.7,0,70-31.3,70-70V780C640,741.3,608.7,710,570,710z M920,710H780c-38.7,0-70,31.3-70,70v140c0,38.7,31.3,70,70,70h140c38.7,0,70-31.3,70-70V780C990,741.3,958.7,710,920,710z"/></g>
</svg>